Coordinates
version=1
nRows=14
nColumns=36
inDegrees=yes

Units are S.I. units (second, meters, Newtons, ...)
If the header above contains a line with 'inDegrees', this indicates whether rotational values are in degrees (yes) or radians (no).

endheader
time	pelvis_tilt	pelvis_list	pelvis_rotation	pelvis_tx	pelvis_ty	pelvis_tz	hip_flexion_r	hip_adduction_r	hip_rotation_r	knee_angle_r	knee_angle_r_beta	ankle_angle_r	subtalar_angle_r	mtp_angle_r	hip_flexion_l	hip_adduction_l	hip_rotation_l	knee_angle_l	knee_angle_l_beta	ankle_angle_l	subtalar_angle_l	mtp_angle_l	lumbar_extension	lumbar_bending	lumbar_rotation	arm_flex_r	arm_add_r	arm_rot_r	elbow_flex_r	pro_sup_r	arm_flex_l	arm_add_l	arm_rot_l	elbow_flex_l	pro_sup_l
      0.00000000	      7.86928198	     -4.26554990	     -5.49302482	      0.78327954	      0.91364429	     -0.11934739	    -11.15612166	      4.66606767	     -4.41905801	      6.35547113	      0.11092390	      9.42315960	     -3.32883178	     -5.59082952	    -10.58307481	     -4.92877598	      2.27574873	      1.83784661	      0.03207647	      5.71198970	     -4.99092826	     -5.59082952	     -4.24832602	      2.77449082	      1.82722202	     53.68293146	     13.82153784	     48.03889398	    115.08487064	     59.15620267	     50.01668409	     31.96476995	     84.84427747	    145.29137146	     37.90711082
      0.01666670	      7.93181504	     -4.24581673	     -5.46539661	      0.78436465	      0.91234661	     -0.12041964	    -12.00276817	      4.71407611	     -3.42593261	      4.68618862	      0.08178942	     10.77676258	     -3.05488320	     -6.64620147	    -11.16453672	     -4.83334311	      2.78462780	      0.67599263	      0.01179830	      6.38341024	     -5.93804971	     -6.64620147	     -4.73306418	      2.67646262	      4.00778427	     55.05164406	      8.76000062	     54.68604252	    125.61129543	     75.51299681	     49.77841641	     30.73441046	     79.31252975	    147.17929734	     50.40186835
      0.03333330	      6.89676420	     -4.27558378	     -5.70218730	      0.78460252	      0.91472299	     -0.11938614	    -11.34394046	      5.08833191	     -2.98970757	      3.96468241	      0.06919676	     10.31378832	     -2.68510267	     -7.20170763	    -10.18500999	     -5.04730265	      2.65612997	      0.47246323	      0.00824604	      6.05132837	     -5.78647858	     -7.20170763	     -3.30448489	      2.80837218	      2.66975337	     53.59189644	     10.84349460	     55.71668556	    125.24079479	     85.70163796	     48.11903786	     28.62471609	     77.25330964	    147.79547975	     65.12847201
      0.05000000	      6.57682504	     -4.10295565	     -5.65747295	      0.78514870	      0.91092818	     -0.11958104	    -11.15559592	      5.08740949	     -2.85541785	      3.67838966	      0.06420001	     10.30551387	     -2.63724467	     -7.27594147	     -9.87243263	     -4.96339490	      2.54030437	      0.38455672	      0.00671178	      5.61095756	     -5.48054389	     -7.27594147	     -2.63920546	      2.53472225	      1.83843760	     53.70825149	     12.00396711	     55.87631954	    123.87855795	     84.00936396	     48.53837804	     27.75110913	     76.16272488	    148.09627875	     65.24724053
      0.06666670	      6.20197807	     -4.01110656	     -5.78763915	      0.77948944	      0.91050940	     -0.11558622	    -10.75709919	      5.22116281	     -2.48808960	      3.50457711	      0.06116641	     10.66311450	     -2.72342700	     -7.33701564	     -9.43263195	     -4.97329840	      2.45398248	      0.36077225	      0.00629666	      5.49917615	     -5.40497911	     -7.33701564	     -2.19241047	      2.30208007	      1.79100340	     54.17372303	     12.35308324	     55.66722550	    122.79237817	     90.83961146	     49.56338096	     26.73540999	     74.94796162	    148.40971291	     65.94470877
      0.08333330	      4.26613480	     -3.71059151	     -6.26323985	      0.77889903	      0.90873294	     -0.11520446	     -7.51275255	      5.10081841	     -2.24685721	      5.56302667	      0.09709313	     11.85290208	     -2.98848904	     -7.36720053	     -6.37561648	     -4.91177787	      1.50040449	      2.16721806	      0.03782509	      6.33691801	     -4.48349163	     -7.36720053	     -0.11787064	      1.33806004	      1.31217077	     54.26987306	     12.31464780	     55.60619978	    121.75328132	     87.93702294	     50.03652908	     26.38063345	     74.79809788	    144.27042716	     65.64974084
      0.10000000	      5.36465636	     -3.79351520	     -6.13378882	      0.78694466	      0.91006411	     -0.11840470	     -9.77302343	      5.19025950	     -2.00615351	      3.61433157	      0.06308199	     11.32180566	     -2.92196634	     -7.37043719	     -8.59560466	     -4.89679677	      1.92440560	      0.35318388	      0.00616422	      5.44473408	     -4.82985582	     -7.37043719	     -1.06872519	      2.25992968	      1.56850464	     54.18488254	     11.83804280	     55.32647246	    122.56688486	     88.36842792	     50.13485834	     25.67877961	     74.70727344	    148.45060711	     65.60467203
      0.11666670	      5.18020121	     -3.68410399	     -6.17682823	      0.78749376	      0.90988677	     -0.11825032	     -9.63062137	      5.11577904	     -1.81491549	      3.55201355	      0.06199433	     11.55736318	     -2.98380445	     -7.40275251	     -8.43897557	     -4.81330541	      1.98349168	      0.34587525	      0.00603666	      5.22084193	     -4.94810331	     -7.40275251	     -0.68166921	      2.28974317	      1.39710009	     54.09660737	     11.60653347	     55.04283494	    122.82484123	     90.64684726	     50.63119373	     25.66673616	     74.60574132	    148.33259050	     64.58167262
      0.13333330	      5.02023270	     -3.61046741	     -6.18000929	      0.78163549	      0.91270549	     -0.11412187	     -9.52532060	      5.11222286	     -1.72807026	      3.43947351	      0.06003014	     11.66390267	     -2.97386970	     -7.40334195	     -8.25470077	     -4.80389772	      1.87435031	      0.33899329	      0.00591655	      5.11622430	     -4.81783330	     -7.40334195	     -0.57287075	      2.23045288	      1.54544744	     54.01019625	     11.37126294	     55.11531511	    122.74578615	     90.72373714	     50.97913480	     25.27765388	     74.85818325	    148.37581677	     64.59458998
      0.15000000	      4.62500413	     -3.58983205	     -6.28484087	      0.78763863	      0.91239153	     -0.10976769	     -9.19691368	      5.18721322	     -1.64312060	      3.37052050	      0.05882668	     11.70576200	     -2.97854447	     -7.40577759	     -7.88199042	     -4.88222019	      1.52505693	      0.33740690	      0.00588886	      5.14135419	     -4.52521857	     -7.40577759	     -0.03562145	      2.18725083	      1.93275854	     53.20439268	     11.44282101	     54.74450384	    122.78445431	     91.03785232	     50.34219438	     25.29808407	     76.50573271	    148.48867371	     64.70188477
      0.16666670	      4.33028586	     -3.58102599	     -6.37663113	      0.78789741	      0.91231181	     -0.10963612	     -8.99026485	      5.26861982	     -1.59293918	      3.24526480	      0.05664056	     11.78601531	     -2.83914317	     -7.41556745	     -7.61558628	     -4.96573748	      1.39208370	      0.33417477	      0.00583245	      5.07797529	     -4.46106300	     -7.41556745	      0.32970221	      2.16220644	      2.22584862	     52.46041554	     11.20531815	     54.92302300	    122.84652705	     89.98742365	     49.85612821	     25.34052883	     77.02149804	    148.42683736	     64.67170435
      0.18333330	      4.06743446	     -3.58707845	     -6.47138160	      0.78823517	      0.91199571	     -0.10959582	     -8.82304391	      5.35863420	     -1.19596787	      3.08687829	      0.05387619	     11.55862341	     -3.35883820	     -7.44403216	     -7.38127438	     -5.05170119	      1.32127787	      0.32726892	      0.00571192	      4.98576078	     -4.54745152	     -7.44403216	      0.68327959	      2.18670993	      2.39002433	     51.99356406	     11.20583975	     54.19868245	    122.86615500	     93.71754736	     49.53013388	     25.42882495	     76.59224952	    148.32751313	     64.22681937
      0.20000000	      3.95034771	     -3.58819558	     -6.52807643	      0.78846874	      0.91152483	     -0.10942397	     -8.80496738	      5.41385021	     -1.30833599	      2.93100264	      0.05115565	     11.68486403	     -3.02677940	     -7.45137814	     -7.29342909	     -5.11945170	      1.03942587	      0.32524156	      0.00567654	      5.12450664	     -4.18922289	     -7.45137814	      0.83125489	      2.22107857	      2.45784401	     51.60425207	     11.11931641	     54.36595714	    123.50223943	     91.73883519	     48.56823773	     25.61769439	     77.12280376	    148.21042751	     64.06685823
      0.21666670	      3.84128589	     -3.59783150	     -6.53751936	      0.78891515	      0.91115524	     -0.10943791	     -8.77637213	      5.47292794	     -1.60772686	      2.80966910	      0.04903798	     11.88209548	     -2.48538406	     -7.45460824	     -7.20026726	     -5.18322267	      0.92274200	      0.32087758	      0.00560037	      5.07539167	     -4.23831555	     -7.45460824	      0.99822752	      2.25101416	      2.42823406	     51.37309172	     11.05251319	     54.37882452	    123.98582709	     90.94845804	     47.76150097	     25.78674097	     77.28964470	    148.14850379	     63.99639346
